<?xml version="1.0" encoding="UTF-8" standalone="no"?>
<!-- Created with Inkscape (http://www.inkscape.org/) -->

<svg
   xmlns:dc="http://purl.org/dc/elements/1.1/"
   xmlns:cc="http://creativecommons.org/ns#"
   xmlns:rdf="http://www.w3.org/1999/02/22-rdf-syntax-ns#"
   xmlns:svg="http://www.w3.org/2000/svg"
   xmlns="http://www.w3.org/2000/svg"
   xmlns:sodipodi="http://sodipodi.sourceforge.net/DTD/sodipodi-0.dtd"
   xmlns:inkscape="http://www.inkscape.org/namespaces/inkscape"
   width="739.20001"
   height="597.33331"
   id="svg2"
   version="1.1"
   inkscape:version="0.92.3 (2405546, 2018-03-11)"
   sodipodi:docname="Zouk Solo Practice Pyramid.svg"
   inkscape:export-filename="Zouk Solo Practice Pyramid.png"
   inkscape:export-xdpi="90"
   inkscape:export-ydpi="90">
  <defs
     id="defs4" />
  <sodipodi:namedview
     id="base"
     pagecolor="#ffffff"
     bordercolor="#666666"
     borderopacity="1.0"
     inkscape:pageopacity="1"
     inkscape:pageshadow="2"
     inkscape:zoom="0.90509668"
     inkscape:cx="306.29386"
     inkscape:cy="217.43301"
     inkscape:document-units="px"
     inkscape:current-layer="layer1"
     showgrid="false"
     inkscape:showpageshadow="false"
     inkscape:window-width="1855"
     inkscape:window-height="1056"
     inkscape:window-x="65"
     inkscape:window-y="24"
     inkscape:window-maximized="1"
     showguides="true"
     inkscape:guide-bbox="true" />
  <metadata
     id="metadata7">
    <rdf:RDF>
      <cc:Work
         rdf:about="">
        <dc:format>image/svg+xml</dc:format>
        <dc:type
           rdf:resource="http://purl.org/dc/dcmitype/StillImage" />
        <dc:title />
      </cc:Work>
    </rdf:RDF>
  </metadata>
  <g
     inkscape:label="Layer 1"
     inkscape:groupmode="layer"
     id="layer1"
     transform="translate(0,-525.18631)">
    <text
       id="text4432"
       y="661.35138"
       x="406.216"
       style="font-style:normal;font-weight:normal;font-size:12.80000019px;line-height:0%;font-family:sans-serif;letter-spacing:0px;word-spacing:0px;fill:#000000;fill-opacity:1;stroke:none;stroke-width:1.06666672px;stroke-linecap:butt;stroke-linejoin:miter;stroke-opacity:1"
       xml:space="preserve"><tspan
         y="661.35138"
         x="406.216"
         id="tspan4434"
         sodipodi:role="line"
         style="font-size:42.66666794px;line-height:1.25;stroke-width:1.06666672px"> </tspan><tspan
         id="tspan4436"
         y="714.68469"
         x="406.216"
         sodipodi:role="line"
         style="font-size:42.66666794px;line-height:1.25;stroke-width:1.06666672px"> </tspan></text>
    <path
       id="path2180"
       d="m 171.67261,1092.7392 c -0.87126,-0.3907 -2.16296,-1.5901 -2.80596,-2.6052 -0.25478,-0.4023 -0.63196,-1.3425 -0.83821,-2.0896 -0.20621,-0.747 -0.63133,-1.8754 -0.94469,-2.5074 -0.73339,-1.4795 -1.39182,-5.5475 -1.67412,-10.3433 -0.18934,-3.2166 -0.27929,-3.7595 -0.95231,-5.7462 -0.40875,-1.2068 -0.87426,-2.7582 -1.03443,-3.4478 -0.16019,-0.6895 -0.38279,-1.6298 -0.49464,-2.0895 -0.1118,-0.4597 -0.26955,-1.7291 -0.35051,-2.8209 -0.11182,-1.5088 -0.3252,-2.4614 -0.88913,-3.9701 -0.40811,-1.0918 -0.80829,-2.5963 -0.88937,-3.3433 -0.0919,-0.8471 -0.42609,-1.9768 -0.88798,-3.002 -1.04857,-2.3276 -1.14381,-3.5514 -0.44937,-5.7741 0.99426,-3.1822 0.92319,-7.8329 -0.23145,-15.1492 -0.5829,-3.6934 -2.22308,-12.7982 -2.84197,-15.776 -0.87003,-4.1862 -1.13074,-5.1383 -3.2991,-12.048 -1.84473,-5.87833 -1.96197,-7.11009 -2.70119,-28.38472 l -0.18148,-5.22386 -1.09577,-2.81914 c -0.6027,-1.55053 -1.42786,-3.47814 -1.83374,-4.28354 -1.15641,-2.29487 -2.69364,-6.9109 -3.1701,-9.51925 -0.3042,-1.66538 -0.43546,-3.25702 -0.43809,-5.31085 -0.002,-1.61305 -0.0937,-3.77905 -0.20369,-4.81338 -0.10999,-1.03432 -0.3018,-3.52607 -0.42624,-5.53725 -0.12447,-2.01125 -0.40628,-4.92613 -0.62626,-6.47763 -0.5098,-3.59542 -2.80593,-14.71268 -4.3804,-21.20886 -0.74702,-3.08218 -1.39972,-6.40993 -1.69359,-8.63463 -0.26298,-1.99086 -0.57752,-3.75124 -0.69899,-3.91194 -0.18153,-0.24022 -0.47352,-0.12874 -1.64127,0.62658 -1.14476,0.74046 -1.67202,0.9453 -2.71641,1.05567 -0.76747,0.081 -1.53332,0.0458 -1.87802,-0.0867 -0.44071,-0.16918 -0.60058,-0.16055 -0.65827,0.0354 -0.0417,0.14235 -0.32558,2.13944 -0.63035,4.43796 -0.30482,2.29848 -0.87549,5.63656 -1.26819,7.41789 -0.98506,4.46829 -2.14239,11.77423 -2.39142,15.09664 -0.11411,1.52293 -0.34582,3.70922 -0.51483,4.85847 -0.31886,2.16846 -0.75405,12.03553 -0.7557,17.13426 -9.1e-4,4.50705 -0.27274,6.49259 -1.32754,9.71638 -0.50764,1.5515 -1.31806,3.76121 -1.8009,4.91044 -0.48284,1.14926 -1.14962,3.05434 -1.48174,4.23352 -0.85414,3.03258 -0.84625,3.63568 0.23671,18.13904 0.12076,1.61684 0.21925,4.34372 0.21889,6.0596 -6.8e-4,4.3652 -0.35474,6.42542 -2.94027,17.1199 -0.44457,1.8387 -0.96428,4.1895 -1.15489,5.2238 -0.19064,1.0344 -0.53467,2.7739 -0.76454,3.8657 -0.22985,1.0918 -0.49678,2.5493 -0.59316,3.2388 -0.0964,0.6895 -0.36547,2.288 -0.59788,3.5522 -0.57224,3.1127 -1.06839,8.7239 -1.06839,12.0835 0,2.2598 0.0953,3.1373 0.52401,4.8276 0.77838,3.0684 0.84979,4.5161 0.30998,6.2829 -1.60398,5.2494 -1.88671,6.8216 -2.08546,11.5969 -0.14864,3.5706 -0.2397,4.2943 -0.73626,5.8507 -0.3117,0.9769 -0.78057,2.1993 -1.04195,2.7164 -0.67543,1.3364 -0.98151,3.6135 -0.94946,7.0636 0.0154,1.644 -0.0644,3.2895 -0.17701,3.6568 -0.11262,0.3672 -0.45161,1.6463 -0.7532,2.8421 -0.30163,1.1961 -0.74032,2.5508 -0.97489,3.0106 -0.23457,0.4597 -0.56441,1.3148 -0.73298,1.9001 -0.16858,0.5853 -0.6405,1.5575 -1.04872,2.1604 -0.63135,0.9325 -0.90021,1.1432 -1.79991,1.4105 -2.20207,0.6539 -4.00693,0.2681 -4.863858,-1.0398 -0.482411,-0.7362 -0.319392,-3.0174 0.302688,-4.2356 0.357355,-0.7 0.389952,-0.8881 0.15376,-0.8881 -0.356864,0 -1.661291,2.2639 -1.986496,3.4478 -0.126304,0.4596 -0.300171,0.9401 -0.386389,1.0678 -0.266656,0.3946 -1.463371,0.9171 -2.100576,0.9171 -0.864118,0 -1.987968,-0.8197 -2.226272,-1.6239 -0.15807,-0.5333 -0.312352,-0.6745 -0.737078,-0.6745 -0.732949,0 -1.453312,-0.5455 -1.792618,-1.3577 -0.198347,-0.4746 -0.46016,-0.7116 -0.878688,-0.7953 -0.704768,-0.141 -1.093152,-0.8552 -1.093152,-2.0103 0,-0.4918 -0.133899,-0.9111 -0.347232,-1.0872 -0.622251,-0.5139 -1.324406,-2.4198 -1.324406,-3.5949 0,-1.3264 1.151339,-6.5103 1.608971,-7.2441 0.179125,-0.2873 0.542859,-0.7575 0.808235,-1.0448 0.265386,-0.2873 0.8608,-1.2746 1.323146,-2.194 0.462368,-0.9194 1.500075,-2.4709 2.306048,-3.4477 1.564352,-1.8961 1.972598,-2.4646 3.301472,-4.597 0.578315,-0.9281 0.91535,-1.7667 1.064267,-2.648 0.14608,-0.8645 0.665035,-2.1734 1.574037,-3.9701 1.473408,-2.9123 1.608011,-3.5455 1.302784,-6.1281 -0.163178,-1.3808 -0.08512,-1.8023 1.237078,-6.6798 0.468039,-1.7267 0.385789,-3.3154 -0.514176,-9.9321 -0.45328,-3.3329 -1.022688,-8.0813 -1.265355,-10.5522 -0.242624,-2.4709 -0.621067,-6.0911 -0.840939,-8.0448 -0.219872,-1.9537 -0.501376,-4.5395 -0.625589,-5.7462 -0.124203,-1.2067 -0.563968,-4.59178 -0.977248,-7.52237 -0.679211,-4.81657 -0.753493,-5.79997 -0.773344,-10.23873 -0.02123,-4.75749 0.02848,-5.46471 0.936011,-13.26865 0.281898,-2.42432 0.678378,-4.83545 1.477589,-8.98501 0.628384,-3.2627 0.639531,-3.42634 0.462389,-6.791 -0.09973,-1.89628 -0.181546,-6.22163 -0.181546,-9.6119 0,-6.74473 0.11217,-5.90927 -1.388011,-10.34325 -0.738357,-2.18246 -1.609707,-7.03141 -2.487989,-13.8456 -0.233142,-1.80874 -0.655296,-4.66486 -0.938091,-6.34693 -0.282859,-1.68204 -0.514251,-3.37748 -0.514251,-3.76763 0,-0.39015 -0.230048,-1.92886 -0.51121,-3.4193 -0.281216,-1.4905 -0.704779,-4.12042 -0.941323,-5.84427 -0.236523,-1.72392 -0.571733,-4.07463 -0.744907,-5.22387 -1.277962,-8.48068 -3.051189,-26.09868 -2.726976,-27.09449 0.04981,-0.1532 0.142304,-3.38154 0.205451,-7.17407 0.199797,-12.0073 0.869387,-18.17849 2.438987,-22.47932 1.28769,-3.52839 1.697024,-6.90518 1.758336,-14.50558 0.04107,-5.07733 0.06933,-5.28263 1.805034,-13.05966 1.243734,-5.57264 1.514827,-8.42618 1.528427,-16.08948 0.0096,-5.34567 -0.248491,-8.97359 -0.950944,-13.3731 -0.669621,-4.19416 -0.785835,-4.25338 -1.321781,-0.67349 -0.31952,2.13426 -2.178059,9.82486 -3.596576,14.8824 -0.501056,1.78644 -0.560779,2.37188 -0.59696,5.85074 -0.02208,2.1261 -0.145472,4.28876 -0.274166,4.80594 -0.332608,1.33673 -2.296032,7.04888 -2.765226,8.04474 -0.681654,1.44693 -2.015339,4.7362 -2.668832,6.58206 -2.90239,8.19826 -5.62671,15.07694 -7.820512,19.7462 -2.893408,6.15827 -4.265195,9.59639 -7.0448,17.65663 -1.77823,5.15644 -3.067104,8.8047 -3.358912,9.50744 -0.09557,0.22985 -0.222496,0.84101 -0.282358,1.35821 -0.05984,0.51716 -0.217738,1.64548 -0.350869,2.50745 -0.143616,0.92986 -0.182677,2.20449 -0.09611,3.13432 0.345131,3.7049 0.401067,3.12918 -1.045525,10.76117 -0.875733,4.62009 -0.89712,4.15227 0.534752,11.70142 0.217963,1.14923 0.42272,3.15506 0.454965,4.45736 0.05856,2.36595 0.05835,2.36821 -0.527605,2.87312 -0.326091,0.28102 -0.852629,0.5053 -1.186336,0.5053 -1.026709,0 -1.358272,-0.70115 -1.865461,-3.94454 -0.250752,-1.60356 -0.638379,-3.55349 -0.861387,-4.33334 -0.223008,-0.77979 -0.556768,-2.24124 -0.741739,-3.24761 -0.406677,-2.21293 -0.753717,-2.6319 -1.453312,-1.75453 -0.264501,0.33168 -0.53184,0.89314 -0.594058,1.24755 -0.06219,0.35447 -0.171691,3.27728 -0.243286,6.49517 -0.181632,8.16504 -0.32048,9.61898 -0.981802,10.28024 -0.620299,0.62034 -1.773238,0.70283 -2.565739,0.18356 -0.597952,-0.39177 -0.623413,-0.73305 -0.297419,-3.98619 0.166976,-1.66658 0.13792,-2.71666 -0.143594,-5.18761 -0.291691,-2.56033 -0.310592,-3.37629 -0.10895,-4.70145 0.287979,-1.89208 0.312534,-3.17058 0.06101,-3.17058 -0.0992,0 -0.23551,0.58766 -0.302891,1.30597 -0.06741,0.71825 -0.224384,2.19923 -0.348843,3.29101 -0.124437,1.09176 -0.263552,4.45965 -0.30913,7.48415 -0.06763,4.49393 -0.141568,5.58872 -0.404032,5.98929 -0.595168,0.90833 -2.40048,0.93392 -3.207595,0.0457 -0.372011,-0.40951 -0.436757,-0.90128 -0.596832,-4.53394 -0.224885,-5.10299 -0.234165,-8.5273 -0.02731,-10.09659 0.106678,-0.80989 0.08917,-1.17212 -0.05237,-1.08464 -0.116843,0.0722 -0.212469,0.4023 -0.212469,0.7335 0,0.33122 -0.09397,0.66037 -0.20896,0.73135 -0.129035,0.0797 -0.20896,1.88503 -0.20896,4.72049 0,4.87872 -0.144555,5.76785 -1.013344,6.23279 -0.760811,0.4072 -1.654912,0.26289 -2.37887,-0.3839 l -0.682389,-0.60968 -0.128768,-4.66644 c -0.07072,-2.56653 -0.04544,-5.3716 0.05664,-6.23355 0.101973,-0.86197 0.385237,-3.25969 0.629493,-5.32835 0.47295,-4.00542 0.719947,-8.04472 0.491936,-8.04472 -0.142944,0 -2.244512,1.80408 -3.731072,3.20295 -1.49441,1.40624 -3.291786,2.02573 -5.843274,2.01393 -1.716694,-0.009 -2.445014,-0.40584 -2.445014,-1.33589 0,-0.43056 0.163968,-0.61436 0.783574,-0.87839 2.106517,-0.89751 2.559701,-1.13301 2.559701,-1.33023 0,-0.1175 1.004128,-1.22267 2.231424,-2.45592 1.227296,-1.23323 2.644587,-2.80738 3.149557,-3.49803 1.621611,-2.21787 1.781323,-2.40494 2.052982,-2.40494 0.146848,0 0.465301,-0.25207 0.707626,-0.56018 0.242336,-0.30809 0.849504,-0.84877 1.34927,-1.20151 2.26049,-1.59543 5.542016,-4.55431 6.097301,-5.49781 0.962219,-1.63493 1.336928,-2.5083 1.341045,-3.12592 0.0032,-0.53183 0.306955,-1.77782 1.46527,-6.01755 0.219797,-0.80448 0.590581,-2.16247 0.823957,-3.01778 0.233397,-0.85528 0.566965,-2.37702 0.741291,-3.38172 0.174304,-1.00466 0.637184,-2.71135 1.028608,-3.79269 1.136842,-3.14063 1.73088,-6.03057 3.35968,-16.34499 1.12513,-7.12498 1.729141,-10.59969 2.288309,-13.16415 0.275637,-1.26415 0.796992,-3.99104 1.158549,-6.05966 0.617024,-3.53025 1.795574,-8.14774 2.746646,-10.76116 0.230037,-0.63207 0.776864,-2.18356 1.215178,-3.44774 0.438304,-1.2642 1.078411,-2.90969 1.4224,-3.65672 1.797718,-3.90375 2.514187,-6.85529 3.170187,-13.05964 0.243051,-2.2985 0.672981,-6.05968 0.955477,-8.35817 1.428576,-11.62427 1.456843,-12.02719 1.400374,-19.95516 -0.08192,-11.49391 0.274869,-15.67521 1.960896,-22.98499 0.970944,-4.20951 2.008096,-7.3928 2.790954,-8.56612 1.496747,-2.24329 3.536107,-3.80635 6.50048,-4.98221 1.611072,-0.63907 2.321152,-1.00072 4.370688,-2.22601 0.632064,-0.3779 2.073259,-1.03077 3.202624,-1.45085 4.853067,-1.80512 16.316628,-7.31358 19.259938,-9.25481 2.01696,-1.33024 3.31201,-2.60658 3.77916,-3.72466 0.45326,-1.08485 0.92332,-4.42653 1.02993,-7.3224 0.0935,-2.539 0.0752,-2.68757 -0.49711,-4.02471 -1.26375,-2.95278 -1.95141,-5.38281 -2.62996,-9.29343 -0.34784,-2.00484 -0.42938,-2.22921 -0.81001,-2.22921 -0.13891,0 -0.61481,-0.24612 -1.0575,-0.54695 -1.07006,-0.7271 -2.19859,-3.15697 -2.92617,-6.30022 -0.62452,-2.6981 -0.66972,-3.72828 -0.23654,-5.39133 0.32609,-1.25209 0.54288,-1.62125 1.32487,-2.25637 0.41801,-0.3395 0.46462,-0.51083 0.34137,-1.25509 -0.0786,-0.47405 -0.22542,-1.01964 -0.32658,-1.21243 -0.10122,-0.19274 -0.28612,-1.55616 -0.41103,-3.02981 -0.1249,-1.47366 -0.32702,-2.88684 -0.44914,-3.14042 -0.15737,-0.32685 -0.15414,-1.05686 0.0114,-2.50745 0.14907,-1.30855 0.16005,-2.07151 0.0305,-2.11604 -0.25985,-0.0893 -0.26413,-0.808 -0.005,-0.96766 0.10829,-0.067 0.25415,-0.56612 0.32416,-1.10934 0.07,-0.54323 0.21647,-1.15093 0.3255,-1.35049 0.10909,-0.19957 0.19825,-0.61231 0.19825,-0.91719 0,-0.3049 0.29813,-1.03491 0.66254,-1.62224 0.36436,-0.58732 0.96529,-1.59941 1.33535,-2.24905 0.61656,-1.08234 2.42838,-3.42633 4.25209,-5.50096 0.88959,-1.01196 2.66838,-2.37799 3.30968,-2.54166 0.25858,-0.066 0.47013,-0.20794 0.47013,-0.31545 0,-0.10747 0.11755,-0.17359 0.26121,-0.14689 0.14366,0.0267 0.55662,-0.0215 0.91767,-0.1069 0.50568,-0.11978 0.63306,-0.24524 0.55443,-0.54596 -0.0859,-0.32814 0.0589,-0.41461 0.90717,-0.54178 0.55511,-0.0832 1.32059,-0.28143 1.70107,-0.44041 0.38048,-0.15897 0.78579,-0.23094 0.90066,-0.15992 0.11493,0.071 0.34039,0.0201 0.50105,-0.1133 0.16065,-0.13334 0.74421,-0.25657 1.2968,-0.27385 0.55261,-0.0173 1.07169,-0.12768 1.15357,-0.24531 0.098,-0.14089 0.49987,-0.0892 1.17728,0.15138 1.20905,0.42942 1.84473,0.46454 1.96342,0.10849 0.0636,-0.19084 0.21877,-0.16949 0.60433,0.0831 0.4902,0.32119 1.29025,0.32596 2.06131,0.0122 0.17237,-0.0701 0.59551,-0.15056 0.94029,-0.17874 0.34477,-0.0282 0.94581,-0.11683 1.33565,-0.19702 0.48681,-0.10027 0.665,-0.075 0.569,0.0804 -0.0943,0.15272 0.2619,0.22422 1.09748,0.22022 1.32618,-0.009 2.12919,0.30956 2.89508,1.13891 0.25542,0.27658 0.88928,0.62181 1.40859,0.76721 0.5193,0.14541 1.15658,0.47504 1.41618,0.73252 0.25961,0.25751 0.94217,0.70887 1.51678,1.00302 1.73473,0.88809 3.3381,2.58902 6.44162,6.83373 0.37815,0.51714 0.80786,1.2694 0.95493,1.67164 0.14708,0.40222 0.40488,0.98901 0.5729,1.30396 0.41961,0.78647 0.75022,2.63683 0.84972,4.75571 0.10005,2.13157 0.10645,1.85804 -0.13487,5.74625 -0.24557,3.95563 -0.53616,6.13038 -0.98977,7.40758 l -0.35665,1.00414 0.55695,0.6619 c 0.59974,0.71274 1.40366,3.01539 1.40366,4.02046 0,1.0638 -1.01896,5.21689 -1.72597,7.03469 -0.42484,1.09241 -0.94294,2.00691 -1.39096,2.45523 -0.71596,0.71647 -0.84849,0.76972 -1.99443,0.80164 l -0.61885,0.0173 -0.59506,2.92537 c -0.8757,4.30507 -0.92715,4.53952 -1.14618,5.22386 -0.19739,0.61683 -0.17483,3.44697 0.053,6.6413 0.17496,2.45314 0.84978,5.49485 1.44404,6.50885 0.74611,1.2732 2.48694,2.78906 4.41994,3.84885 8.09484,4.43789 15.77172,8.20924 20.46484,10.05344 3.72485,1.46371 4.37265,1.78865 6.99996,3.51097 3.0225,1.98139 5.40067,3.9475 6.3669,5.26375 1.84663,2.51564 3.1904,6.95325 4.30518,14.21739 0.43139,2.81095 0.46864,3.84509 0.5156,14.31339 0.0486,10.7955 0.2525,15.61616 0.91777,21.67837 1.18529,10.80125 1.82198,15.31857 2.55496,18.12744 0.51572,1.97641 0.60521,2.22005 2.07275,5.64177 1.29375,3.01657 3.86842,10.65701 4.57687,13.58204 0.23657,0.97688 0.71463,3.70372 1.06229,6.05969 0.34766,2.35595 1.00022,6.54028 1.4501,9.29845 0.82,5.02718 1.48074,9.41258 1.88898,12.53726 0.42541,3.25624 0.86588,5.8209 1.26973,7.39305 0.46468,1.80913 2.58089,8.49476 3.67872,11.62179 0.40342,1.14924 1.04241,3.1709 1.41993,4.49252 1.22721,4.29599 1.70434,5.34646 3.11222,6.85176 0.69882,0.74716 2.66702,2.57911 4.37386,4.07104 1.9136,1.67262 3.31546,3.07349 3.6567,3.65412 0.66317,1.12838 2.0418,2.89752 3.38889,4.34881 0.54121,0.58306 1.18303,1.45022 1.42627,1.92702 0.64076,1.256 1.53149,2.19205 2.8411,2.98574 1.01782,0.61687 1.15084,0.77634 1.15084,1.37988 0,1.03837 -0.70107,1.40367 -2.42785,1.26507 -2.12373,-0.17047 -3.93508,-1.17406 -6.29601,-3.48832 l -1.93283,-1.89469 v 1.28386 c 0,1.35226 0.0891,1.99309 0.95432,6.86935 0.87989,4.95869 0.91771,5.35929 0.92207,9.77536 0.003,4.89993 -0.13182,5.50349 -1.36256,6.01773 -0.68988,0.28824 -0.82111,0.28311 -1.52245,-0.0598 -1.02729,-0.50226 -1.21186,-1.1458 -1.49403,-5.2103 -0.3498,-5.03826 -0.4837,-5.92218 -1.1785,-7.77933 -0.27387,-0.7319 -0.49794,-1.64869 -0.49794,-2.03732 0,-0.38852 -0.094,-0.70642 -0.20894,-0.70642 -0.31096,0 -0.25297,1.33703 0.12053,2.77831 0.41829,1.61427 0.48644,5.65414 0.14066,8.34026 -0.14367,1.116 -0.26119,3.24145 -0.26119,4.72325 0,2.55145 -0.0266,2.72267 -0.49971,3.23325 -0.65317,0.70483 -1.88455,0.94521 -2.61402,0.51022 -1.00489,-0.59915 -1.06429,-0.95184 -0.99351,-5.89879 0.0643,-4.4939 -0.0351,-6.64971 -0.48118,-10.43869 -0.36271,-3.08043 -0.66525,-2.70206 -0.50604,0.63302 0.0934,1.9568 0.0624,3.16971 -0.0932,3.65146 -0.3544,1.09693 -0.65613,4.15674 -0.72825,7.38449 -0.0621,2.78261 -0.0858,2.91878 -0.57198,3.31259 -0.67312,0.5451 -2.2139,0.37639 -2.77638,-0.30397 -0.36326,-0.43934 -0.37736,-0.93682 -0.26499,-9.33463 0.11542,-8.62509 0.0734,-9.42657 -0.49459,-9.42657 -0.0835,0 -0.16697,0.81294 -0.1855,1.80648 -0.0186,0.99357 -0.18802,2.38054 -0.37662,3.08209 -0.18859,0.70157 -0.36129,1.7457 -0.38377,2.32032 -0.0685,1.75049 -0.3433,4.34455 -0.54579,5.15218 -0.32366,1.29108 -1.90625,1.48158 -2.76398,0.33272 -0.57039,-0.76395 -0.68886,-3.23234 -0.31844,-6.63414 0.36441,-3.34672 0.36513,-7.51242 0.002,-8.9323 -0.15444,-0.60313 -0.34197,-1.05873 -0.41679,-1.01255 -0.0748,0.0464 -0.15578,-0.37691 -0.18002,-0.94022 -0.0242,-0.56329 -0.1398,-1.37999 -0.25689,-1.81477 -0.73293,-2.72186 -1.0425,-5.72765 -0.9981,-9.69073 0.043,-3.83788 0.0215,-4.08663 -0.42486,-4.92192 -0.25857,-0.48384 -0.47013,-1.02142 -0.47013,-1.19464 0,-0.30673 -1.47987,-3.83102 -4.66813,-11.11716 -0.86151,-1.96883 -2.08172,-4.93074 -2.71153,-6.58207 -0.62984,-1.65133 -2.19743,-5.49419 -3.48352,-8.53969 -2.9193,-6.91294 -3.47074,-8.34226 -5.96584,-15.46262 -2.00213,-5.71354 -2.59037,-7.2245 -3.82339,-9.82087 -0.72015,-1.51635 -2.74407,-7.05826 -3.16692,-8.67159 -0.16796,-0.64075 -0.29121,-2.53969 -0.31873,-4.91044 -0.0402,-3.4619 -0.10283,-4.07299 -0.59888,-5.85071 -1.16288,-4.16708 -2.45607,-9.61969 -3.04591,-12.84273 -0.50768,-2.77412 -1.26182,-8.53959 -1.26182,-9.64678 0,-0.1576 -0.0829,-0.28653 -0.18403,-0.28653 -0.10123,0 -0.342,1.05783 -0.53502,2.35073 -0.19301,1.29291 -0.66504,4.04328 -1.04893,6.11193 -1.98843,10.71457 -2.16521,16.69933 -0.70677,23.92527 1.9351,9.58757 2.22616,11.82828 2.48334,19.11934 0.10941,3.10296 0.29109,6.01789 0.40366,6.47757 0.11262,0.45971 0.20688,1.23212 0.20962,1.71652 0.003,0.64182 0.11059,0.93723 0.39427,1.08902 0.21405,0.11458 0.48991,0.4705 0.61296,0.79094 0.2356,0.61351 0.87116,3.69509 0.98208,4.76171 0.0358,0.34476 0.20601,1.0735 0.37818,1.6194 0.17216,0.54587 0.2637,0.99253 0.20341,0.99253 -0.0603,0 -0.009,0.1242 0.11945,0.276 0.12599,0.15181 0.22296,0.55144 0.21551,0.88806 -0.009,0.33662 0.0964,1.0822 0.23089,1.65681 0.97306,4.15922 1.26227,5.74914 1.4633,8.04475 0.2615,2.98607 0.54768,5.38884 0.94568,7.94027 0.15244,0.97686 0.44034,3.27736 0.63986,5.11224 0.31854,2.92905 0.33208,3.79603 0.11102,7.10446 -0.36961,5.53044 -1.41693,16.53944 -2.01837,21.21599 -0.28818,2.24106 -0.70634,6.70742 -0.92921,9.92535 -0.47516,6.86036 -2.14481,22.95183 -2.61393,25.19245 -0.17892,0.85456 -0.50067,2.11788 -0.71491,2.80742 -1.19551,3.84703 -1.69919,11.61796 -1.28672,19.85069 0.23301,4.65066 0.4214,5.71029 1.9687,11.07459 0.94622,3.2804 2.34005,10.33987 2.74349,13.89546 0.56311,4.96278 0.40486,13.13666 -0.41271,21.31327 -0.31685,3.1693 -0.65996,9.6696 -0.83824,15.8806 -0.0578,2.0112 -0.1999,4.9731 -0.31599,6.5821 -0.71017,9.844 -0.80002,14.1683 -0.32242,15.5219 0.16361,0.4638 0.25014,0.8905 0.19226,0.9485 -0.0579,0.058 0.056,0.3515 0.25331,0.6525 0.74138,1.1315 1.14972,3.2475 1.27232,6.5934 l 0.11865,3.2388 0.96295,1.2537 c 1.01101,1.3163 2.74996,4.5614 3.58304,6.6866 0.27029,0.6895 0.61743,1.4021 0.77137,1.5836 0.15393,0.1814 0.27988,0.4171 0.27988,0.5238 0,0.1067 0.43072,0.7105 0.95716,1.3419 1.30486,1.5646 3.8111,5.2928 4.29783,6.3932 0.21897,0.495 0.61743,1.1628 0.88546,1.4839 1.2763,1.5294 1.79637,3.3678 1.79065,6.3302 -0.003,1.9612 -0.0645,2.316 -0.57213,3.3433 -0.32535,0.6583 -0.79106,1.2574 -1.09033,1.4023 -0.57191,0.2771 -0.77281,0.8743 -0.81108,2.4111 -0.0302,1.2123 -0.61331,1.9357 -1.40104,1.738 -0.47447,-0.1191 -0.50427,-0.074 -0.50427,0.7712 0,1.2658 -0.44844,1.8266 -1.46066,1.8266 -0.72588,0 -0.81695,0.059 -0.87619,0.5679 -0.15452,1.327 -2.98445,2.0918 -4.04692,1.0937 l -0.45548,-0.4279 -0.12271,0.6134 c -0.24137,1.207 -3.38411,2.0865 -4.94846,1.385 z"
       style="fill:#e3bba3;fill-opacity:0.375;stroke-width:1.06666672"
       inkscape:connector-curvature="0" />
    <flowRoot
       xml:space="preserve"
       id="flowRoot3010-7-4"
       style="font-style:normal;font-variant:normal;font-weight:bold;font-stretch:normal;font-size:12.80000019px;line-height:0.01%;font-family:Arial;-inkscape-font-specification:'Arial Bold';letter-spacing:0px;word-spacing:0px;fill:#000000;fill-opacity:1;stroke:none;stroke-width:1.06666672"><flowRegion
         id="flowRegion3012-4-8"
         style="stroke-width:1.06666672"><rect
           id="rect3014-0-8"
           width="906.17419"
           height="50.642315"
           x="-85.019119"
           y="543.44202"
           style="stroke-width:1.13777781" /></flowRegion><flowPara
         style="font-style:oblique;font-variant:normal;font-weight:bold;font-stretch:normal;font-size:37.33333206px;line-height:1.25;font-family:Arial;-inkscape-font-specification:'Arial Bold Oblique';text-align:center;text-anchor:middle;fill:#ff0000;stroke-width:1.06666672"
         id="flowPara3016-9-2">Zouk Solo Practice Pyramid</flowPara></flowRoot>    <g
       transform="matrix(0.75647028,0,0,0.75647028,170.82686,247.73622)"
       id="g4217">
      <path
         style="fill:#f6ffd5;fill-rule:evenodd;stroke:#000000;stroke-width:1.06666672px;stroke-linecap:butt;stroke-linejoin:miter;stroke-opacity:1"
         d="m 369.58114,488.41323 -75.96347,131.99326 155.15943,2.15499 z"
         id="path4461"
         inkscape:connector-curvature="0" />
      <path
         style="fill:#e5ff80;fill-rule:evenodd;stroke:#000000;stroke-width:1.06666672px;stroke-linecap:butt;stroke-linejoin:miter;stroke-opacity:1"
         d="M 293.61767,620.94524 217.11546,754.016 524.74058,755.09349 447.16086,621.48399 Z"
         id="path4459"
         inkscape:connector-curvature="0" />
      <path
         style="fill:#ccff00;fill-rule:evenodd;stroke:#000000;stroke-width:1.06666672px;stroke-linecap:butt;stroke-linejoin:miter;stroke-opacity:1"
         d="m 216.5767,754.55475 -77.04097,134.687 460.62957,-0.53874 -75.96348,-133.07076 z"
         id="path4457"
         inkscape:connector-curvature="0" />
      <path
         style="fill:#aad400;fill-rule:evenodd;stroke:#000000;stroke-width:1.06666672px;stroke-linecap:butt;stroke-linejoin:miter;stroke-opacity:1"
         d="M 136.84199,889.24175 60.878527,1021.7738 676.66752,1019.08 601.78155,887.62551 Z"
         id="path4455"
         inkscape:connector-curvature="0" />
      <g
         id="g4420"
         style="fill:none">
        <path
           inkscape:transform-center-y="-12.531136"
           inkscape:transform-center-x="-11.993043"
           d="M 61.494341,1021.4656 369.7722,487.90755 677.70807,1021.663 Z"
           inkscape:randomized="0"
           inkscape:rounded="0"
           inkscape:flatsided="true"
           sodipodi:arg2="3.6655119"
           sodipodi:arg1="2.6183143"
           sodipodi:r2="124.24889"
           sodipodi:r1="355.77118"
           sodipodi:cy="843.67871"
           sodipodi:cx="369.6582"
           sodipodi:sides="3"
           id="path4235"
           style="fill:none;stroke:#000000;stroke-width:5.33333349;stroke-miterlimit:4;stroke-dasharray:none;stroke-opacity:1"
           sodipodi:type="star" />
        <path
           sodipodi:nodetypes="cc"
           inkscape:connector-curvature="0"
           id="path4239"
           d="M 136.88531,888.97239 H 601.54755"
           style="fill:none;stroke:#000000;stroke-width:5.33333349;stroke-linecap:butt;stroke-linejoin:miter;stroke-miterlimit:4;stroke-dasharray:none;stroke-opacity:1" />
        <path
           sodipodi:nodetypes="cc"
           inkscape:connector-curvature="0"
           id="path4239-3"
           d="M 215.22983,755.6322 H 525.00994"
           style="fill:none;stroke:#000000;stroke-width:5.33333349;stroke-linecap:butt;stroke-linejoin:miter;stroke-miterlimit:4;stroke-dasharray:none;stroke-opacity:1" />
        <path
           sodipodi:nodetypes="cc"
           inkscape:connector-curvature="0"
           id="path4239-3-6"
           d="M 291.53694,622.29206 H 448.0087"
           style="fill:none;stroke:#000000;stroke-width:5.33333349;stroke-linecap:butt;stroke-linejoin:miter;stroke-miterlimit:4;stroke-dasharray:none;stroke-opacity:1" />
      </g>
      <flowRoot
         xml:space="preserve"
         id="flowRoot4320"
         style="font-style:normal;font-weight:normal;font-size:12.80000019px;line-height:0.01%;font-family:sans-serif;text-align:center;letter-spacing:0px;word-spacing:0px;text-anchor:middle;fill:#000000;fill-opacity:1;stroke:none;stroke-width:1.06666672"><flowRegion
           id="flowRegion4322"
           style="stroke-width:1.06666672"><rect
             id="rect4324"
             width="708.24432"
             height="129.15025"
             x="14.560458"
             y="916.78662"
             style="text-align:center;text-anchor:middle;stroke-width:1.13777781" /></flowRegion><flowPara
           id="flowPara4326"
           style="font-size:34.66666794px;line-height:1.25;text-align:center;text-anchor:middle;stroke-width:1.06666672">Footwork &amp; Knees</flowPara><flowPara
           style="font-size:28.20115089px;line-height:1.25;text-align:center;text-anchor:middle;stroke-width:1.06666672"
           id="flowPara4442">i<flowSpan
   style="font-size:24.67600799px"
   id="flowSpan870">ncluding overall balance/axis/weight shift</flowSpan></flowPara></flowRoot>      <flowRoot
         xml:space="preserve"
         id="flowRoot4320-3"
         style="font-style:normal;font-weight:normal;font-size:12.80000019px;line-height:0.01%;font-family:sans-serif;text-align:center;letter-spacing:0px;word-spacing:0px;text-anchor:middle;fill:#000000;fill-opacity:1;stroke:none;stroke-width:1.06666672"><flowRegion
           id="flowRegion4322-5"
           style="stroke-width:1.06666672"><rect
             id="rect4324-6"
             width="667.2995"
             height="265.99225"
             x="40.314209"
             y="786.97986"
             style="text-align:center;text-anchor:middle;stroke-width:1.13777781" /></flowRegion><flowPara
           style="font-size:29.33333397px;line-height:1.25;text-align:center;text-anchor:middle;stroke-width:1.06666672"
           id="flowPara4414">Hips, Waist,</flowPara><flowPara
           style="font-size:29.33333397px;line-height:1.25;text-align:center;text-anchor:middle;stroke-width:1.06666672"
           id="flowPara4418">Abdominal &amp; Lower Spine</flowPara></flowRoot>      <flowRoot
         xml:space="preserve"
         id="flowRoot4320-3-9"
         style="font-style:normal;font-weight:normal;font-size:12.80000019px;line-height:0.01%;font-family:sans-serif;text-align:center;letter-spacing:0px;word-spacing:0px;text-anchor:middle;fill:#000000;fill-opacity:1;stroke:none;stroke-width:1.06666672"><flowRegion
           id="flowRegion4322-5-1"
           style="stroke-width:1.06666672"><rect
             id="rect4324-6-2"
             width="491.66763"
             height="181.94754"
             x="126.08381"
             y="630.51801"
             style="text-align:center;text-anchor:middle;stroke-width:1.13777781" /></flowRegion><flowPara
           style="font-size:24px;line-height:1.25;text-align:center;text-anchor:middle;stroke-width:1.06666672"
           id="flowPara4426">Chest,</flowPara><flowPara
           style="font-size:24px;line-height:1.25;text-align:center;text-anchor:middle;stroke-width:1.06666672"
           id="flowPara4438">Shoulders,</flowPara><flowPara
           style="font-size:24px;line-height:1.25;text-align:center;text-anchor:middle;stroke-width:1.06666672"
           id="flowPara4410">Upper Spine,</flowPara><flowPara
           style="font-size:24px;line-height:1.25;text-align:center;text-anchor:middle;stroke-width:1.06666672"
           id="flowPara4412">Arms &amp; Hands</flowPara></flowRoot>      <flowRoot
         xml:space="preserve"
         id="flowRoot4320-3-9-0"
         style="font-style:normal;font-weight:normal;font-size:12.80000019px;line-height:0.01%;font-family:sans-serif;text-align:center;letter-spacing:0px;word-spacing:0px;text-anchor:middle;fill:#000000;fill-opacity:1;stroke:none;stroke-width:1.06666672"><flowRegion
           id="flowRegion4322-5-1-9"
           style="stroke-width:1.06666672"><rect
             id="rect4324-6-2-3"
             width="425.9404"
             height="105.44533"
             x="156.6983"
             y="552.44403"
             style="text-align:center;text-anchor:middle;stroke-width:1.13777781" /></flowRegion><flowPara
           id="flowPara4326-2-7-6"
           style="font-size:21.33333397px;line-height:1.25;text-align:center;text-anchor:middle;stroke-width:1.06666672">Head</flowPara><flowPara
           style="font-size:21.33333397px;line-height:1.25;text-align:center;text-anchor:middle;stroke-width:1.06666672"
           id="flowPara4404">&amp; Neck</flowPara></flowRoot>    </g>
    <text
       id="text4463"
       y="1019.2216"
       x="311.34442"
       style="font-style:normal;font-weight:normal;font-size:12.80000019px;line-height:0%;font-family:sans-serif;text-align:start;letter-spacing:0px;word-spacing:0px;text-anchor:start;fill:#999999;fill-opacity:1;stroke:none;stroke-width:1.06666672"
       xml:space="preserve"
       transform="scale(0.96770085,1.0333772)"><tspan
         style="font-style:normal;font-variant:normal;font-weight:normal;font-stretch:normal;font-size:21.33333397px;line-height:1.25;font-family:'Eras Medium ITC';-inkscape-font-specification:'Eras Medium ITC';text-align:start;text-anchor:start;fill:#999999;stroke-width:1.06666672"
         y="1019.2216"
         x="311.34442"
         sodipodi:role="line"
         id="tspan3043">* The pyramid volume is indicative to</tspan><tspan
         style="font-style:normal;font-variant:normal;font-weight:normal;font-stretch:normal;font-size:21.33333397px;line-height:1.25;font-family:'Eras Medium ITC';-inkscape-font-specification:'Eras Medium ITC';text-align:start;text-anchor:start;fill:#999999;stroke-width:1.06666672"
         y="1045.8883"
         x="311.34442"
         sodipodi:role="line"
         id="tspan878">the time we should spend on practice.</tspan></text>
    <text
       id="text4179"
       y="988.69745"
       x="124.5278"
       style="font-style:normal;font-weight:normal;font-size:12.80000019px;line-height:0%;font-family:sans-serif;letter-spacing:0px;word-spacing:0px;fill:#b3b3b3;fill-opacity:1;stroke:none;stroke-width:1.06666672"
       xml:space="preserve"><tspan
         y="988.69745"
         x="124.5278"
         id="tspan4181"
         sodipodi:role="line"
         style="font-size:32.27606583px;line-height:1.25;stroke-width:1.06666672">1</tspan></text>
    <text
       id="text4183"
       y="872.80627"
       x="121.24486"
       style="font-style:normal;font-weight:normal;font-size:12.80000019px;line-height:0%;font-family:sans-serif;letter-spacing:0px;word-spacing:0px;fill:#b3b3b3;fill-opacity:1;stroke:none;stroke-width:1.06666672"
       xml:space="preserve"><tspan
         y="872.80627"
         x="121.24486"
         id="tspan4185"
         sodipodi:role="line"
         style="font-size:32.27606583px;line-height:1.25;stroke-width:1.06666672">2</tspan></text>
    <text
       id="text4187"
       y="776.34381"
       x="120.87455"
       style="font-style:normal;font-weight:normal;font-size:12.80000019px;line-height:0%;font-family:sans-serif;letter-spacing:0px;word-spacing:0px;fill:#b3b3b3;fill-opacity:1;stroke:none;stroke-width:1.06666672"
       xml:space="preserve"><tspan
         y="776.34381"
         x="120.87455"
         id="tspan4189"
         sodipodi:role="line"
         style="font-size:32.27606583px;line-height:1.25;stroke-width:1.06666672">3</tspan></text>
    <text
       id="text4191"
       y="675.28741"
       x="118.92969"
       style="font-style:normal;font-weight:normal;font-size:12.80000019px;line-height:0%;font-family:sans-serif;letter-spacing:0px;word-spacing:0px;fill:#b3b3b3;fill-opacity:1;stroke:none;stroke-width:1.06666672"
       xml:space="preserve"><tspan
         y="675.28741"
         x="118.92969"
         id="tspan4193"
         sodipodi:role="line"
         style="font-size:32.27606583px;line-height:1.25;stroke-width:1.06666672">4</tspan></text>
    <path
       inkscape:connector-curvature="0"
       id="path4193"
       d="M 92.685237,921.22922 H 172.67261"
       style="fill:none;stroke:#000000;stroke-width:1.06666672px;stroke-linecap:butt;stroke-linejoin:miter;stroke-opacity:1"
       sodipodi:nodetypes="cc" />
    <path
       inkscape:connector-curvature="0"
       id="path4193-3"
       d="M 93.339659,816.03471 H 169.57702"
       style="fill:none;stroke:#000000;stroke-width:1.06666672px;stroke-linecap:butt;stroke-linejoin:miter;stroke-opacity:1"
       sodipodi:nodetypes="cc" />
    <path
       inkscape:connector-curvature="0"
       id="path4193-3-6"
       d="M 98.339659,715.20138 H 167.49369"
       style="fill:none;stroke:#000000;stroke-width:1.06666672px;stroke-linecap:butt;stroke-linejoin:miter;stroke-opacity:1"
       sodipodi:nodetypes="cc" />
    <text
       xml:space="preserve"
       style="font-style:normal;font-weight:normal;font-size:12.80000019px;line-height:0%;font-family:sans-serif;letter-spacing:0px;word-spacing:0px;fill:#000000;fill-opacity:1;stroke:none;stroke-width:1.06666672px;stroke-linecap:butt;stroke-linejoin:miter;stroke-opacity:1"
       x="547.23804"
       y="1111.339"
       id="text4420"><tspan
         sodipodi:role="line"
         id="tspan4422"
         x="547.23804"
         y="1111.339"
         style="font-style:normal;font-variant:normal;font-weight:normal;font-stretch:normal;font-size:16px;line-height:1.25;font-family:'Eras Light ITC';-inkscape-font-specification:'Eras Light ITC';stroke-width:1.06666672px">Copyright © ZoukBase.com</tspan></text>
    <text
       xml:space="preserve"
       style="font-style:normal;font-weight:normal;font-size:12.80000019px;line-height:0%;font-family:sans-serif;letter-spacing:0px;word-spacing:0px;fill:#999999;fill-opacity:1;stroke:none;stroke-width:1.06666672px;stroke-linecap:butt;stroke-linejoin:miter;stroke-opacity:1"
       x="55.39003"
       y="1110.7345"
       id="text4189"><tspan
         sodipodi:role="line"
         id="tspan4191"
         x="55.39003"
         y="1110.7345"
         style="font-style:normal;font-variant:normal;font-weight:normal;font-stretch:normal;font-size:21.33333397px;line-height:1.25;font-family:'Eras Medium ITC';-inkscape-font-specification:'Eras Medium ITC';fill:#999999;stroke-width:1.06666672px">* Body Sections</tspan></text>
  </g>
</svg>
