<?xml version="1.0"?><svg width="698.52008" height="800.90808" xmlns="http://www.w3.org/2000/svg">
 <title>Lego Bricks</title>
 <defs>
  <pattern height="100" width="100" y="0" x="0" patternUnits="userSpaceOnUse" id="gridpattern">
   <image height="100" width="100" y="0" x="0"/>
  </pattern>
 </defs>
 <metadata id="metadata2835">image/svg+xmlLegoBlocks brunurb2007-11-14brunurbThis work is hereby released into the Public Domain. To view a copy of the public domain dedication, visit http://creativecommons.org/licenses/publicdomain/ or send a letter to Creative Commons, 171 Second Street, Suite 300, San Francisco, California, 94105, USA.openclipart.orgopenclipart.orglegoblockbrickplasticplaygametoykidchildrenpuzzlebuildLego type construction bricks</metadata>
 <g>
  <title>Layer 1</title>
  <g externalResourcesRequired="false" id="layer1">
   <g id="g3245">
    <g fill="#002ec4" id="g3164" transform="matrix(5.72445 0 0 5.72445 -1262.68 -2786.68)">
     <path fill="#002ec4" d="m266.565308,604.393127l0,22.501038l25.181,10.179993l0,-22.502014l-25.181,-10.179016z" id="path3166"/>
    </g>
    <g fill="#2da6ff" id="g3168" transform="matrix(5.72445 0 0 5.72445 -1262.68 -2786.68)">
     <path d="m322.5513,627.271179l0,-21.76001l-30.938995,9.195007l0,22.500977l30.938995,-9.935974z" id="path3170"/>
    </g>
    <g fill="#2da6ff" id="g3172" transform="matrix(5.72445 0 0 5.72445 -1262.68 -2786.68)">
     <path d="m266.565308,604.661133l31.192017,-9.191956l24.793976,10.041992l-30.804993,9.461975l-25.181,-10.312012z" id="path3174"/>
    </g>
    <g fill="#002ec4" id="g3176" transform="matrix(5.72445 0 0 5.72445 -1262.68 -2786.68)">
     <path d="m286.925323,605.999146l0,4.554016c2.409973,2.143005 10.712982,2.01001 12.722992,-0.268005l0,-4.687988l-12.722992,0.401978z" id="path3178"/>
    </g>
    <g fill="#2da6ff" id="g3180" transform="matrix(5.72445 0 0 5.72445 -1262.68 -2786.68)">
     <path d="m286.925323,605.665161c0,-0.850037 2.847992,-1.540039 6.360992,-1.540039c3.514008,0 6.362,0.690002 6.362,1.540039c0,0.851013 -2.847992,1.539978 -6.362,1.539978c-3.513,0 -6.360992,-0.688965 -6.360992,-1.539978z" id="path3182"/>
    </g>
    <g fill="#002ec4" id="g3188" transform="matrix(5.72445 0 0 5.72445 -1262.68 -2786.68)">
     <path d="m302.795319,601.378174l0,4.553955c2.41098,2.144043 10.713989,2.01001 12.722992,-0.266968l0,-4.687988l-12.722992,0.401001z" id="path3190"/>
    </g>
    <g fill="#2da6ff" id="g3192" transform="matrix(5.72445 0 0 5.72445 -1262.68 -2786.68)">
     <path d="m302.795319,601.045166c0,-0.851013 2.847992,-1.540039 6.362,-1.540039c3.513,0 6.360992,0.689026 6.360992,1.540039c0,0.849976 -2.847992,1.539978 -6.360992,1.539978c-3.514008,0 -6.362,-0.690002 -6.362,-1.539978z" id="path3194"/>
    </g>
    <g fill="#002ec4" id="g3200" transform="matrix(5.72445 0 0 5.72445 -1262.68 -2786.68)">
     <path d="m289.606323,595.823181l0,4.553955c2.41098,2.143005 10.713989,2.009033 12.722992,-0.268005l0,-4.687988l-12.722992,0.402039z" id="path3202"/>
    </g>
    <g fill="#2da6ff" id="g3204" transform="matrix(5.72445 0 0 5.72445 -1262.68 -2786.68)">
     <path d="m289.606323,595.489136c0,-0.849976 2.847992,-1.539978 6.362,-1.539978c3.513,0 6.360992,0.690002 6.360992,1.539978c0,0.851013 -2.847992,1.540039 -6.360992,1.540039c-3.514008,0 -6.362,-0.689026 -6.362,-1.540039z" id="path3206"/>
    </g>
    <g fill="#002ec4" id="g3212" transform="matrix(5.72445 0 0 5.72445 -1262.68 -2786.68)">
     <path d="m274.004303,600.311157l0,4.554016c2.411011,2.143005 10.71402,2.008972 12.722992,-0.268005l0,-4.687988l-12.722992,0.401978z" id="path3214"/>
    </g>
    <g fill="#2da6ff" id="g3216" transform="matrix(5.72445 0 0 5.72445 -1262.68 -2786.68)">
     <path d="m274.004303,599.977173c0,-0.851013 2.847992,-1.540039 6.362,-1.540039c3.513,0 6.360992,0.689026 6.360992,1.540039c0,0.850952 -2.847992,1.539978 -6.360992,1.539978c-3.514008,0 -6.362,-0.689026 -6.362,-1.539978z" id="path3218"/>
    </g>
   </g>
   <g fill="#f5fa40" transform="matrix(5.7244485,0,0,5.7244485,-582.68175,-2300.9683)" id="g2860">
    <path id="path2862"/>
   </g>
   <g fill="#f5fa40" transform="matrix(5.7244485,0,0,5.7244485,-582.68175,-2300.9683)" id="g2872">
    <path id="path2874"/>
   </g>
   <g fill="#f5fa40" transform="matrix(5.7244485,0,0,5.7244485,-582.68175,-2300.9683)" id="g2884">
    <path id="path2886"/>
   </g>
   <g fill="#f5fa40" transform="matrix(5.7244485,0,0,5.7244485,-582.68175,-2300.9683)" id="g2896">
    <path id="path2898"/>
   </g>
   <g fill="#f5fa40" transform="matrix(5.7244485,0,0,5.7244485,-582.68175,-2300.9683)" id="g2908">
    <path id="path2910"/>
   </g>
   <g fill="#f5fa40" transform="matrix(5.7244485,0,0,5.7244485,-582.68175,-2300.9683)" id="g2920">
    <path id="path2922"/>
   </g>
   <g fill="#f5fa40" transform="matrix(5.7244485,0,0,5.7244485,-582.68175,-2300.9683)" id="g2932">
    <path id="path2934"/>
   </g>
   <g fill="#f5fa40" transform="matrix(5.7244485,0,0,5.7244485,-582.68175,-2300.9683)" id="g2944">
    <path id="path2946"/>
   </g>
   <g fill="#ff212c" transform="matrix(5.7244485,0,0,5.7244485,-582.68175,-2300.9683)" id="g2968">
    <path id="path2970"/>
   </g>
   <g fill="#ff212c" transform="matrix(5.7244485,0,0,5.7244485,-582.68175,-2300.9683)" id="g2980">
    <path id="path2982"/>
   </g>
   <g fill="#ff212c" transform="matrix(5.7244485,0,0,5.7244485,-582.68175,-2300.9683)" id="g2992">
    <path id="path2994"/>
   </g>
   <g fill="#ff212c" transform="matrix(5.7244485,0,0,5.7244485,-582.68175,-2300.9683)" id="g3004">
    <path id="path3006"/>
   </g>
   <g fill="#ff212c" transform="matrix(5.7244485,0,0,5.7244485,-582.68175,-2300.9683)" id="g3016">
    <path id="path3018"/>
   </g>
   <g fill="#ff212c" transform="matrix(5.7244485,0,0,5.7244485,-582.68175,-2300.9683)" id="g3028">
    <path id="path3030"/>
   </g>
   <g fill="#ff212c" transform="matrix(5.7244485,0,0,5.7244485,-582.68175,-2300.9683)" id="g3040">
    <path id="path3042"/>
   </g>
   <g fill="#ff212c" transform="matrix(5.7244485,0,0,5.7244485,-582.68175,-2300.9683)" id="g3052">
    <path id="path3054"/>
   </g>
   <g fill="#2da6ff" transform="matrix(5.7244485,0,0,5.7244485,-582.68175,-2300.9683)" id="g3076">
    <path id="path3078"/>
   </g>
   <g fill="#2da6ff" transform="matrix(5.7244485,0,0,5.7244485,-582.68175,-2300.9683)" id="g3088">
    <path id="path3090"/>
   </g>
   <g fill="#2da6ff" transform="matrix(5.7244485,0,0,5.7244485,-582.68175,-2300.9683)" id="g3100">
    <path id="path3102"/>
   </g>
   <g fill="#2da6ff" transform="matrix(5.7244485,0,0,5.7244485,-582.68175,-2300.9683)" id="g3112">
    <path id="path3114"/>
   </g>
   <g fill="#2da6ff" transform="matrix(5.7244485,0,0,5.7244485,-582.68175,-2300.9683)" id="g3124">
    <path id="path3126"/>
   </g>
   <g fill="#2da6ff" transform="matrix(5.7244485,0,0,5.7244485,-582.68175,-2300.9683)" id="g3136">
    <path id="path3138"/>
   </g>
   <g fill="#2da6ff" transform="matrix(5.7244485,0,0,5.7244485,-582.68175,-2300.9683)" id="g3148">
    <path id="path3150"/>
   </g>
   <g id="g3269">
    <g fill="#fcd327" id="g2840" transform="matrix(5.72445 0 0 5.72445 -582.682 -2300.97)">
     <path d="m122.397377,481.134369l0,22.501984l25.181007,10.179016l0,-22.502014l-25.181007,-10.178986z" id="path2842"/>
    </g>
    <g fill="#f5fa40" id="g2844" transform="matrix(5.72445 0 0 5.72445 -582.682 -2300.97)">
     <path d="m209.858383,494.159363l0,-20.928986l-62.414001,18.21698l0,22.501984l62.414001,-19.789978z" id="path2846"/>
    </g>
    <g fill="#f5fa40" id="g2848" transform="matrix(5.72445 0 0 5.72445 -582.682 -2300.97)">
     <path d="m122.397377,481.402374l62.012001,-18.887024l25.315002,10.715027l-62.145996,18.484985l-25.181007,-10.312988z" id="path2850"/>
    </g>
    <g fill="#e9b018" id="g2852" transform="matrix(5.72445 0 0 5.72445 -582.682 -2300.97)">
     <path d="m142.756378,482.740356l0,4.554016c2.410995,2.143982 10.714005,2.009979 12.723999,-0.266998l0,-4.688995l-12.723999,0.401978z" id="path2854"/>
    </g>
    <g fill="#f5fa40" id="g2856" transform="matrix(5.72445 0 0 5.72445 -582.682 -2300.97)">
     <path d="m142.756378,482.406372c0,-0.850006 2.848007,-1.540009 6.362,-1.540009c3.513,0 6.362,0.690002 6.362,1.540009c0,0.850983 -2.848999,1.539978 -6.362,1.539978c-3.513992,0 -6.362,-0.688995 -6.362,-1.539978z" id="path2858"/>
    </g>
    <g fill="#e9b018" id="g2864" transform="matrix(5.72445 0 0 5.72445 -582.682 -2300.97)">
     <path d="m158.62738,478.119354l0,4.555023c2.410995,2.142975 10.714005,2.009003 12.723007,-0.268005l0,-4.688019l-12.723007,0.401001z" id="path2866"/>
    </g>
    <g fill="#f5fa40" id="g2868" transform="matrix(5.72445 0 0 5.72445 -582.682 -2300.97)">
     <path d="m158.62738,477.786377c0,-0.851013 2.848007,-1.540009 6.361008,-1.540009c3.513992,0 6.362,0.688995 6.362,1.540009c0,0.849976 -2.848007,1.539978 -6.362,1.539978c-3.513,0 -6.361008,-0.690002 -6.361008,-1.539978z" id="path2870"/>
    </g>
    <g fill="#e9b018" id="g2876" transform="matrix(5.72445 0 0 5.72445 -582.682 -2300.97)">
     <path d="m174.096375,473.499359l0,4.554016c2.411011,2.142975 10.714005,2.009003 12.723007,-0.268005l0,-4.688019l-12.723007,0.402008z" id="path2878"/>
    </g>
    <g fill="#f5fa40" id="g2880" transform="matrix(5.72445 0 0 5.72445 -582.682 -2300.97)">
     <path d="m174.096375,473.165375c0,-0.851013 2.848007,-1.540009 6.362,-1.540009c3.513,0 6.361008,0.688995 6.361008,1.540009c0,0.850983 -2.848007,1.539978 -6.361008,1.539978c-3.513992,0 -6.362,-0.688995 -6.362,-1.539978z" id="path2882"/>
    </g>
    <g fill="#e9b018" id="g2888" transform="matrix(5.72445 0 0 5.72445 -582.682 -2300.97)">
     <path d="m189.03038,469.01236l0,4.554016c2.410995,2.142975 10.714005,2.009003 12.723007,-0.268005l0,-4.688019l-12.723007,0.402008z" id="path2890"/>
    </g>
    <g fill="#f5fa40" id="g2892" transform="matrix(5.72445 0 0 5.72445 -582.682 -2300.97)">
     <path d="m189.03038,468.678375c0,-0.850006 2.848007,-1.540009 6.361008,-1.540009c3.513992,0 6.362,0.690002 6.362,1.540009c0,0.850983 -2.848007,1.539978 -6.362,1.539978c-3.513,0 -6.361008,-0.688995 -6.361008,-1.539978z" id="path2894"/>
    </g>
    <g fill="#e9b018" id="g2900" transform="matrix(5.72445 0 0 5.72445 -582.682 -2300.97)">
     <path d="m176.64238,463.588379l0,4.553986c2.410004,2.144012 10.712997,2.01001 12.723007,-0.266998l0,-4.687988l-12.723007,0.401001z" id="path2902"/>
    </g>
    <g fill="#f5fa40" id="g2904" transform="matrix(5.72445 0 0 5.72445 -582.682 -2300.97)">
     <path d="m176.64238,463.255371c0,-0.851013 2.848007,-1.540009 6.361008,-1.540009c3.513992,0 6.362,0.688995 6.362,1.540009c0,0.850006 -2.848007,1.540009 -6.362,1.540009c-3.513,0 -6.361008,-0.690002 -6.361008,-1.540009z" id="path2906"/>
    </g>
    <g fill="#e9b018" id="g2912" transform="matrix(5.72445 0 0 5.72445 -582.682 -2300.97)">
     <path d="m161.040375,468.076355l0,4.554016c2.410004,2.143982 10.714005,2.009979 12.723007,-0.266998l0,-4.688995l-12.723007,0.401978z" id="path2914"/>
    </g>
    <g fill="#f5fa40" id="g2916" transform="matrix(5.72445 0 0 5.72445 -582.682 -2300.97)">
     <path d="m161.040375,467.742371c0,-0.850006 2.848007,-1.540009 6.361008,-1.540009c3.513992,0 6.362,0.690002 6.362,1.540009c0,0.850983 -2.848007,1.540009 -6.362,1.540009c-3.513,0 -6.361008,-0.689026 -6.361008,-1.540009z" id="path2918"/>
    </g>
    <g fill="#e9b018" id="g2924" transform="matrix(5.72445 0 0 5.72445 -582.682 -2300.97)">
     <path d="m145.438385,472.564362l0,4.554016c2.410995,2.142975 10.713989,2.009979 12.722992,-0.268005l0,-4.688019l-12.722992,0.402008z" id="path2926"/>
    </g>
    <g fill="#f5fa40" id="g2928" transform="matrix(5.72445 0 0 5.72445 -582.682 -2300.97)">
     <path d="m145.438385,472.230377c0,-0.850006 2.847992,-1.540009 6.360992,-1.540009c3.514008,0 6.362,0.690002 6.362,1.540009c0,0.850983 -2.847992,1.539978 -6.362,1.539978c-3.513,0 -6.360992,-0.688995 -6.360992,-1.539978z" id="path2930"/>
    </g>
    <g fill="#e9b018" id="g2936" transform="matrix(5.72445 0 0 5.72445 -582.682 -2300.97)">
     <path d="m129.83638,477.052368l0,4.553986c2.410995,2.143005 10.714005,2.009003 12.723007,-0.267975l0,-4.688019l-12.723007,0.402008z" id="path2938"/>
    </g>
    <g fill="#f5fa40" id="g2940" transform="matrix(5.72445 0 0 5.72445 -582.682 -2300.97)">
     <path d="m129.83638,476.718353c0,-0.849976 2.848007,-1.539978 6.361008,-1.539978c3.513992,0 6.362,0.690002 6.362,1.539978c0,0.851013 -2.848007,1.540009 -6.362,1.540009c-3.513,0 -6.361008,-0.688995 -6.361008,-1.540009z" id="path2942"/>
    </g>
    <g fill="#c00104" id="g2948" transform="matrix(5.72445 0 0 5.72445 -582.682 -2300.97)">
     <path fill="#c00104" d="m141.536377,453.635376l0,22.500977l25.181,10.180023l0,-22.502014l-25.181,-10.178986z" id="path2950"/>
    </g>
    <g fill="#ff212c" id="g2952" transform="matrix(5.72445 0 0 5.72445 -582.682 -2300.97)">
     <path d="m228.997375,466.66037l0,-20.929016l-62.414001,18.21701l0,22.501007l62.414001,-19.789001z" id="path2954"/>
    </g>
    <g fill="#ff212c" id="g2956" transform="matrix(5.72445 0 0 5.72445 -582.682 -2300.97)">
     <path d="m141.536377,453.902374l62.013,-18.886017l25.314011,10.714996l-62.146011,18.484009l-25.181,-10.312988z" id="path2958"/>
    </g>
    <g fill="#c00104" id="g2960" transform="matrix(5.72445 0 0 5.72445 -582.682 -2300.97)">
     <path d="m161.896378,455.241364l0,4.554016c2.410004,2.142975 10.712997,2.009979 12.723007,-0.268005l0,-4.688019l-12.723007,0.402008z" id="path2962"/>
    </g>
    <g fill="#ff212c" id="g2964" transform="matrix(5.72445 0 0 5.72445 -582.682 -2300.97)">
     <path d="m161.896378,454.907379c0,-0.850006 2.848007,-1.540009 6.361008,-1.540009c3.513992,0 6.362,0.690002 6.362,1.540009c0,0.850983 -2.848007,1.539978 -6.362,1.539978c-3.513,0 -6.361008,-0.688995 -6.361008,-1.539978z" id="path2966"/>
    </g>
    <g fill="#c00104" id="g2972" transform="matrix(5.72445 0 0 5.72445 -582.682 -2300.97)">
     <path d="m177.766388,450.620361l0,4.554016c2.410995,2.143982 10.713989,2.009979 12.722992,-0.266998l0,-4.688019l-12.722992,0.401001z" id="path2974"/>
    </g>
    <g fill="#ff212c" id="g2976" transform="matrix(5.72445 0 0 5.72445 -582.682 -2300.97)">
     <path d="m177.766388,450.287354c0,-0.850983 2.847992,-1.539978 6.362,-1.539978c3.513,0 6.360992,0.688995 6.360992,1.539978c0,0.850006 -2.847992,1.540009 -6.360992,1.540009c-3.514008,0 -6.362,-0.690002 -6.362,-1.540009z" id="path2978"/>
    </g>
    <g fill="#c00104" id="g2984" transform="matrix(5.72445 0 0 5.72445 -582.682 -2300.97)">
     <path d="m193.235382,445.999359l0,4.554993c2.410995,2.143005 10.714005,2.009003 12.722992,-0.267975l0,-4.688019l-12.722992,0.401001z" id="path2986"/>
    </g>
    <g fill="#ff212c" id="g2988" transform="matrix(5.72445 0 0 5.72445 -582.682 -2300.97)">
     <path d="m193.235382,445.666351c0,-0.850983 2.847992,-1.539978 6.362,-1.539978c3.513,0 6.360992,0.688995 6.360992,1.539978c0,0.850006 -2.847992,1.540009 -6.360992,1.540009c-3.514008,0 -6.362,-0.690002 -6.362,-1.540009z" id="path2990"/>
    </g>
    <g fill="#c00104" id="g2996" transform="matrix(5.72445 0 0 5.72445 -582.682 -2300.97)">
     <path d="m208.169388,441.513367l0,4.553986c2.410995,2.143005 10.713989,2.009003 12.722992,-0.267975l0,-4.688019l-12.722992,0.402008z" id="path2998"/>
    </g>
    <g fill="#ff212c" id="g3000" transform="matrix(5.72445 0 0 5.72445 -582.682 -2300.97)">
     <path d="m208.169388,441.179352c0,-0.849976 2.847992,-1.539978 6.362,-1.539978c3.513,0 6.360992,0.690002 6.360992,1.539978c0,0.851013 -2.847992,1.540009 -6.360992,1.540009c-3.514008,0 -6.362,-0.688995 -6.362,-1.540009z" id="path3002"/>
    </g>
    <g fill="#c00104" id="g3008" transform="matrix(5.72445 0 0 5.72445 -582.682 -2300.97)">
     <path d="m195.781387,436.089355l0,4.554016c2.410995,2.143982 10.713989,2.009979 12.722992,-0.266998l0,-4.688995l-12.722992,0.401978z" id="path3010"/>
    </g>
    <g fill="#ff212c" id="g3012" transform="matrix(5.72445 0 0 5.72445 -582.682 -2300.97)">
     <path d="m195.781387,435.755371c0,-0.850006 2.847992,-1.540009 6.360992,-1.540009c3.514008,0 6.362,0.690002 6.362,1.540009c0,0.850983 -2.847992,1.540009 -6.362,1.540009c-3.513,0 -6.360992,-0.689026 -6.360992,-1.540009z" id="path3014"/>
    </g>
    <g fill="#c00104" id="g3020" transform="matrix(5.72445 0 0 5.72445 -582.682 -2300.97)">
     <path d="m180.179382,440.577362l0,4.554016c2.410995,2.142975 10.714005,2.009979 12.722992,-0.268005l0,-4.688019l-12.722992,0.402008z" id="path3022"/>
    </g>
    <g fill="#ff212c" id="g3024" transform="matrix(5.72445 0 0 5.72445 -582.682 -2300.97)">
     <path d="m180.179382,440.243378c0,-0.850006 2.847992,-1.540009 6.360992,-1.540009c3.514008,0 6.362,0.690002 6.362,1.540009c0,0.850983 -2.847992,1.539978 -6.362,1.539978c-3.513,0 -6.360992,-0.688995 -6.360992,-1.539978z" id="path3026"/>
    </g>
    <g fill="#c00104" id="g3032" transform="matrix(5.72445 0 0 5.72445 -582.682 -2300.97)">
     <path d="m164.577377,445.065369l0,4.553986c2.411011,2.143005 10.714005,2.009003 12.723007,-0.267975l0,-4.688019l-12.723007,0.402008z" id="path3034"/>
    </g>
    <g fill="#ff212c" id="g3036" transform="matrix(5.72445 0 0 5.72445 -582.682 -2300.97)">
     <path d="m164.577377,444.731354c0,-0.849976 2.848007,-1.539978 6.362,-1.539978c3.513,0 6.361008,0.690002 6.361008,1.539978c0,0.851013 -2.848007,1.540009 -6.361008,1.540009c-3.513992,0 -6.362,-0.688995 -6.362,-1.540009z" id="path3038"/>
    </g>
    <g fill="#c00104" id="g3044" transform="matrix(5.72445 0 0 5.72445 -582.682 -2300.97)">
     <path d="m148.975388,449.553375l0,4.553986c2.410995,2.143005 10.713989,2.009003 12.722992,-0.268005l0,-4.687988l-12.722992,0.402008z" id="path3046"/>
    </g>
    <g fill="#ff212c" id="g3048" transform="matrix(5.72445 0 0 5.72445 -582.682 -2300.97)">
     <path d="m148.975388,449.21936c0,-0.850983 2.847992,-1.540009 6.362,-1.540009c3.513,0 6.360992,0.689026 6.360992,1.540009c0,0.851013 -2.847992,1.540009 -6.360992,1.540009c-3.514008,0 -6.362,-0.688995 -6.362,-1.540009z" id="path3050"/>
    </g>
    <g fill="#002ec4" id="g3056" transform="matrix(5.72445 0 0 5.72445 -582.682 -2300.97)">
     <path fill="#002ec4" d="m106.973381,432.217377l0,22.500977l25.180992,10.179016l0,-22.501007l-25.180992,-10.178986z" id="path3058"/>
    </g>
    <g fill="#2da6ff" id="g3060" transform="matrix(5.72445 0 0 5.72445 -582.682 -2300.97)">
     <path d="m194.434387,445.242371l0,-20.929016l-62.414001,18.21701l0,22.501007l62.414001,-19.789001z" id="path3062"/>
    </g>
    <g fill="#2da6ff" id="g3064" transform="matrix(5.72445 0 0 5.72445 -582.682 -2300.97)">
     <path d="m106.973381,432.484375l62.012001,-18.886017l25.315002,10.714996l-62.146011,18.484009l-25.180992,-10.312988z" id="path3066"/>
    </g>
    <g fill="#002ec4" id="g3068" transform="matrix(5.72445 0 0 5.72445 -582.682 -2300.97)">
     <path d="m127.332382,433.823364l0,4.554016c2.410995,2.142975 10.714005,2.008972 12.722992,-0.268005l0,-4.688019l-12.722992,0.402008z" id="path3070"/>
    </g>
    <g fill="#2da6ff" id="g3072" transform="matrix(5.72445 0 0 5.72445 -582.682 -2300.97)">
     <path d="m127.332382,433.48938c0,-0.850006 2.847992,-1.540009 6.362,-1.540009c3.513,0 6.360992,0.690002 6.360992,1.540009c0,0.850983 -2.847992,1.539978 -6.360992,1.539978c-3.514008,0 -6.362,-0.688995 -6.362,-1.539978z" id="path3074"/>
    </g>
    <g fill="#002ec4" id="g3080" transform="matrix(5.72445 0 0 5.72445 -582.682 -2300.97)">
     <path d="m143.203384,429.202362l0,4.554016c2.410004,2.143982 10.712997,2.009979 12.722992,-0.266998l0,-4.688019l-12.722992,0.401001z" id="path3082"/>
    </g>
    <g fill="#2da6ff" id="g3084" transform="matrix(5.72445 0 0 5.72445 -582.682 -2300.97)">
     <path d="m143.203384,428.868378c0,-0.850006 2.847992,-1.540009 6.360992,-1.540009c3.514008,0 6.362,0.690002 6.362,1.540009c0,0.850983 -2.847992,1.540985 -6.362,1.540985c-3.513,0 -6.360992,-0.690002 -6.360992,-1.540985z" id="path3086"/>
    </g>
    <g fill="#002ec4" id="g3092" transform="matrix(5.72445 0 0 5.72445 -582.682 -2300.97)">
     <path d="m158.672379,424.58136l0,4.554993c2.410995,2.143005 10.714005,2.009003 12.723007,-0.267975l0,-4.688019l-12.723007,0.401001z" id="path3094"/>
    </g>
    <g fill="#2da6ff" id="g3096" transform="matrix(5.72445 0 0 5.72445 -582.682 -2300.97)">
     <path d="m158.672379,424.248352c0,-0.850983 2.848007,-1.539978 6.361008,-1.539978c3.513992,0 6.362,0.688995 6.362,1.539978c0,0.850006 -2.848007,1.540009 -6.362,1.540009c-3.513,0 -6.361008,-0.690002 -6.361008,-1.540009z" id="path3098"/>
    </g>
    <g fill="#002ec4" id="g3104" transform="matrix(5.72445 0 0 5.72445 -582.682 -2300.97)">
     <path d="m173.606384,420.095367l0,4.553986c2.410004,2.143005 10.712997,2.009003 12.722992,-0.267975l0,-4.688019l-12.722992,0.402008z" id="path3106"/>
    </g>
    <g fill="#2da6ff" id="g3108" transform="matrix(5.72445 0 0 5.72445 -582.682 -2300.97)">
     <path d="m173.606384,419.761353c0,-0.850983 2.847992,-1.539978 6.360992,-1.539978c3.514008,0 6.362,0.688995 6.362,1.539978c0,0.851013 -2.847992,1.540009 -6.362,1.540009c-3.513,0 -6.360992,-0.688995 -6.360992,-1.540009z" id="path3110"/>
    </g>
    <g fill="#002ec4" id="g3116" transform="matrix(5.72445 0 0 5.72445 -582.682 -2300.97)">
     <path d="m161.217377,414.671356l0,4.554016c2.411011,2.143005 10.714005,2.009979 12.723999,-0.268005l0,-4.687988l-12.723999,0.401978z" id="path3118"/>
    </g>
    <g fill="#2da6ff" id="g3120" transform="matrix(5.72445 0 0 5.72445 -582.682 -2300.97)">
     <path d="m161.217377,414.337372c0,-0.850006 2.848999,-1.540009 6.362,-1.540009c3.514008,0 6.362,0.690002 6.362,1.540009c0,0.850983 -2.847992,1.540009 -6.362,1.540009c-3.513,0 -6.362,-0.689026 -6.362,-1.540009z" id="path3122"/>
    </g>
    <g fill="#002ec4" id="g3128" transform="matrix(5.72445 0 0 5.72445 -582.682 -2300.97)">
     <path d="m145.616379,419.159363l0,4.554016c2.410004,2.142975 10.712997,2.008972 12.723007,-0.268005l0,-4.688019l-12.723007,0.402008z" id="path3130"/>
    </g>
    <g fill="#2da6ff" id="g3132" transform="matrix(5.72445 0 0 5.72445 -582.682 -2300.97)">
     <path d="m145.616379,418.825378c0,-0.850006 2.848007,-1.540009 6.361008,-1.540009c3.513992,0 6.362,0.690002 6.362,1.540009c0,0.850983 -2.848007,1.539978 -6.362,1.539978c-3.513,0 -6.361008,-0.688995 -6.361008,-1.539978z" id="path3134"/>
    </g>
    <g fill="#002ec4" id="g3140" transform="matrix(5.72445 0 0 5.72445 -582.682 -2300.97)">
     <path d="m130.014374,423.647369l0,4.553986c2.410004,2.143005 10.713013,2.009003 12.723007,-0.267975l0,-4.688019l-12.723007,0.402008z" id="path3142"/>
    </g>
    <g fill="#2da6ff" id="g3144" transform="matrix(5.72445 0 0 5.72445 -582.682 -2300.97)">
     <path d="m130.014374,423.313354c0,-0.850983 2.848007,-1.539978 6.361008,-1.539978c3.513992,0 6.362,0.688995 6.362,1.539978c0,0.851013 -2.848007,1.540009 -6.362,1.540009c-3.513,0 -6.361008,-0.688995 -6.361008,-1.540009z" id="path3146"/>
    </g>
    <g fill="#002ec4" id="g3152" transform="matrix(5.72445 0 0 5.72445 -582.682 -2300.97)">
     <path d="m114.412384,428.134369l0,4.554993c2.410995,2.143005 10.712997,2.009003 12.723,-0.268005l0,-4.687988l-12.723,0.401001z" id="path3154"/>
    </g>
    <g fill="#2da6ff" id="g3156" transform="matrix(5.72445 0 0 5.72445 -582.682 -2300.97)">
     <path d="m114.412384,427.801361c0,-0.850983 2.848,-1.540009 6.361,-1.540009c3.514,0 6.362,0.689026 6.362,1.540009c0,0.850006 -2.848,1.540009 -6.362,1.540009c-3.513,0 -6.361,-0.690002 -6.361,-1.540009z" id="path3158"/>
    </g>
   </g>
   <g fill="#2da6ff" transform="matrix(5.7244485,0,0,5.7244485,-582.68175,-2300.9683)" id="g3160">
    <path id="path3162"/>
   </g>
   <g fill="#2da6ff" transform="matrix(5.7244485,0,0,5.7244485,-582.68175,-2300.9683)" id="g3184">
    <path id="path3186"/>
   </g>
   <g fill="#2da6ff" transform="matrix(5.7244485,0,0,5.7244485,-582.68175,-2300.9683)" id="g3196">
    <path id="path3198"/>
   </g>
   <g fill="#2da6ff" transform="matrix(5.7244485,0,0,5.7244485,-582.68175,-2300.9683)" id="g3208">
    <path id="path3210"/>
   </g>
   <g fill="#2da6ff" transform="matrix(5.72445 0 0 5.72445 -582.682 -2300.97)" id="g3220">
    <path transform="translate(0.349379 0.174689) translate(-4.83572 -10.4934)" id="path3222"/>
   </g>
  </g>
 </g>
</svg>